<svg width="160" height="28" viewBox="0 0 160 28" fill="none" xmlns="http://www.w3.org/2000/svg">
  <path
    d="M3.57914 0H13.8348C19.1089 0 22.6578 3.90704 21.9087 8.69183C21.3865 11.9481 19.6613 13.8676 17.0911 15.0404L20.6727 22.7889H12.6317L9.89748 15.9838H8.46482L7.42311 22.7889H0L3.57914 0ZM11.9784 10.3843C13.5725 10.3843 14.3216 9.83191 14.5183 8.59346C14.7125 7.35754 14.0618 6.25025 12.4677 6.25025H10.0261L9.34258 10.3843H11.9784Z"
    fill="#6245BB"
  />
  <path
    d="M39.2953 22.7889H33.4688L33.2418 21.553C32.1673 22.5291 30.833 23.1168 29.1406 23.1168C24.4516 23.1168 21.1978 18.6574 21.9772 13.6759C22.7591 8.69434 26.4694 5.40527 30.7674 5.40527C32.9492 5.40527 34.3491 6.1216 35.358 7.32726L36.1399 5.73317H41.9992L39.2953 22.7889ZM33.7589 14.3897C33.9531 13.0882 33.0753 11.8497 31.6099 11.8497C30.1772 11.8497 29.1027 12.8259 28.9085 14.1299C28.7143 15.4642 29.6248 16.7026 31.0575 16.7026C32.523 16.7001 33.5647 15.6912 33.7589 14.3897Z"
    fill="#6245BB"
  />
  <path
    d="M60.9746 14.8462C60.1927 19.8605 56.4824 23.1168 52.1844 23.1168C50.3936 23.1168 49.1249 22.7587 48.116 21.9768L47.1398 28H40.1077L43.6565 5.73065H49.5158L49.71 7.03216C50.8501 5.99045 52.1188 5.40527 53.8113 5.40527C58.533 5.40275 61.7565 9.86469 60.9746 14.8462ZM51.8918 11.8497C50.4264 11.8497 49.3847 12.8259 49.1904 14.1299C48.9634 15.4642 49.874 16.7026 51.3394 16.7026C52.7721 16.7026 53.8466 15.6937 54.0408 14.3922C54.235 13.0882 53.3245 11.8497 51.8918 11.8497Z"
    fill="#6245BB"
  />
  <path
    d="M80.9336 14.8462C80.1517 19.8605 76.4414 23.1168 72.1434 23.1168C70.3526 23.1168 69.0839 22.7587 68.0749 21.9768L67.0988 28H60.0667L63.6155 5.73065H69.4748L69.669 7.03216C70.8091 5.99045 72.0778 5.40527 73.7703 5.40527C78.492 5.40275 81.7155 9.86469 80.9336 14.8462ZM71.8508 11.8497C70.3854 11.8497 69.3437 12.8259 69.1494 14.1299C68.9224 15.4642 69.833 16.7026 71.2984 16.7026C72.7311 16.7026 73.8056 15.6937 73.9998 14.3922C74.1965 13.0882 73.2835 11.8497 71.8508 11.8497Z"
    fill="#6245BB"
  />
  <path d="M153.677 5.72815L141.199 22.7889H147.303L159.781 5.72815H153.677Z" fill="#320070" />
  <path d="M138.281 5.72815L125.801 22.7889H131.905L144.385 5.72815H138.281Z" fill="#320070" />
  <path d="M122.888 5.72815L110.41 22.7889H116.512L128.992 5.72815H122.888Z" fill="#6245BB" />
  <path d="M107.49 5.72815L95.0117 22.7889H101.116L113.593 5.72815H107.49Z" fill="#320070" />
  <path d="M138.281 5.72815L125.801 22.7889H131.905L144.385 5.72815H138.281Z" fill="#320070" />
</svg>
